<mxfile host="65bd71144e">
    <diagram id="0HKani68keH5NpDcK7cA" name="Page-1">
        <mxGraphModel dx="666" dy="547" grid="1" gridSize="10" guides="1" tooltips="1" connect="1" arrows="1" fold="1" page="1" pageScale="1" pageWidth="850" pageHeight="1100" math="0" shadow="0">
            <root>
                <mxCell id="0"/>
                <mxCell id="1" parent="0"/>
                <mxCell id="2" value="" style="rounded=0;whiteSpace=wrap;html=1;" vertex="1" parent="1">
                    <mxGeometry x="80" y="80" width="320" height="270" as="geometry"/>
                </mxCell>
                <mxCell id="3" value="Go Live" style="rounded=0;whiteSpace=wrap;html=1;" vertex="1" parent="1">
                    <mxGeometry x="260" y="160" width="120" height="50" as="geometry"/>
                </mxCell>
                <mxCell id="4" value="SessionID" style="rounded=0;whiteSpace=wrap;html=1;" vertex="1" parent="1">
                    <mxGeometry x="100" y="110" width="280" height="40" as="geometry"/>
                </mxCell>
                <mxCell id="5" value="Connect" style="rounded=0;whiteSpace=wrap;html=1;" vertex="1" parent="1">
                    <mxGeometry x="260" y="270" width="120" height="50" as="geometry"/>
                </mxCell>
                <mxCell id="6" value="SessionID" style="rounded=0;whiteSpace=wrap;html=1;" vertex="1" parent="1">
                    <mxGeometry x="100" y="220" width="280" height="40" as="geometry"/>
                </mxCell>
                <mxCell id="7" value="Choose Plugin/Protocol" style="rounded=0;whiteSpace=wrap;html=1;" vertex="1" parent="1">
                    <mxGeometry x="100" y="160" width="150" height="50" as="geometry"/>
                </mxCell>
                <mxCell id="8" value="Choose Plugin/Protocol" style="rounded=0;whiteSpace=wrap;html=1;" vertex="1" parent="1">
                    <mxGeometry x="100" y="270" width="150" height="50" as="geometry"/>
                </mxCell>
            </root>
        </mxGraphModel>
    </diagram>
</mxfile>